<?xml version="1.0" encoding="UTF-8"?>
<svg width="267px" height="84px" viewBox="0 0 267 84" version="1.1" xmlns="http://www.w3.org/2000/svg" xmlns:xlink="http://www.w3.org/1999/xlink">
    <!-- Generator: Sketch 49.3 (51167) - http://www.bohemiancoding.com/sketch -->
    <title>logo_login</title>
    <desc>Created with Sketch.</desc>
    <defs>
        <path d="M38.406709,0.661814946 C42.8960915,0.661814946 46.0401482,2.41357572 47.3699716,6.82397482 C47.8943662,10.3019498 47.3288073,11.219312 45.2316148,14.1201679 L39.1136242,16.0884927 C41.0811487,14.1306268 43.1621414,9.99545957 42.7516817,8.13558502 C42.0201845,5.77719186 40.7233836,4.8 38.406709,4.8 C35.8188599,4.8 34.1149049,5.71611342 32.9737021,7.65151212 L31.4474704,8.54309531 L29.4828934,7.33255708 C27.1732233,5.05359971 24.7658807,4.8 22.7604757,4.8 C21.4836302,4.8 19.7744664,5.82384183 18.8713396,7.33255708 C17.7798711,9.15590582 17.8955114,11.4366911 19.6951602,14.1201679 C21.5934545,16.9507363 23.4817971,19.2845612 25.7218898,21.6916054 C26.3690122,22.386957 29.9626058,26.0672082 30.872161,27.0940208 C31.3194938,27.5990226 31.7229508,28.0814571 32.096023,28.5608191 C32.6513555,29.274368 33.5384455,30.2719752 34.958368,31.7950284 C35.2397069,32.0968014 38.1938835,35.2364753 39.1136242,36.230327 C39.6649898,36.8261207 40.1731193,37.381621 40.6543641,37.9156355 C44.3112187,41.9734739 46.4960059,44.8655118 47.3288073,47.1657821 C49.6065542,53.4571183 44.4916128,58.7385214 37.538314,58.7385214 C34.4882127,58.7385214 31.7833847,57.4834084 29.938729,55.8898749 C28.0282369,57.4788816 25.7268208,58.7385214 22.7604757,58.7385214 C18.3972543,58.7385214 15.2287684,58.6493834 13.7252027,54.8104114 C12.5814379,52.4630516 12.6101983,51.1998545 12.6101983,48.7998037 L16.9486242,46.4982434 C16.9486242,48.1724141 17.2192355,50.3765466 18.0776507,52.1130351 L18.1696848,52.3241449 C18.9270545,54.317419 20.296066,55.2043677 22.7604757,55.2043677 C25.4016411,55.2043677 27.0951702,54.3610189 28.1603062,52.6371045 L30.3540357,50.7760756 L32.3192986,52.7684833 C33.1856969,54.3916774 34.7945753,55.2043677 37.538314,55.2043677 C41.2844712,55.2043677 43.9151234,51.837069 42.8154967,48.7998037 C42.2738863,47.3038286 40.307077,44.7003317 37.0886503,41.1289959 C36.6225314,40.6117659 36.1284603,40.0716346 35.590703,39.4905458 C34.6874006,38.5144569 31.7416543,35.3837426 31.4474704,35.0681918 C29.932936,33.4436547 28.9780887,32.3698489 28.3080329,31.5088915 C28.0010415,31.114437 27.6621226,30.709174 27.2790985,30.2767715 C26.4628794,29.3553276 22.9277928,25.7349943 22.2081083,24.9616726 C19.8043772,22.3787942 17.7585887,19.85038 15.7086458,16.7936867 C12.8990855,12.6043194 12.6821833,8.3263331 14.7528438,4.86719865 C16.5013966,1.94615984 19.7502442,0.661814946 22.7604757,0.661814946 C25.4470237,0.661814946 27.8303871,1.92296278 30.3540357,3.86990861 C32.3372664,1.91219431 35.2187963,0.661814946 38.406709,0.661814946 Z" id="path-1"></path>
        <path d="M38.6331672,0.331470387 C43.1225496,0.331470387 45.8636744,1.73329112 47.1934977,6.14369021 C47.6337363,9.43930795 47.5686543,9.77688121 47.1396368,11.4418885 L40.8808223,14.4516383 C42.8483468,12.4937724 43.985548,9.83633368 43.5750883,7.97645913 C42.8435911,5.61806596 41.2589719,3.84150804 38.9422973,3.84150804 C36.3544482,3.84150804 34.0794987,4.73605415 32.9382959,6.67145285 L31.6739286,7.98298251 L30.3549329,5.84483667 C28.0452628,3.5658793 24.9840789,3.24014315 22.9869338,3.89387287 C21.7338623,4.30404343 20.0009245,6.15531222 19.0977977,7.66402747 C18.0063293,9.48737621 18.1219695,11.7681614 19.9216183,14.4516383 C21.8199127,17.2822067 23.7082553,19.6160316 25.948348,22.0230758 C26.5954703,22.7184274 30.189064,26.3986786 31.0986191,27.4254912 C31.5459519,27.9304929 31.949409,28.4129275 32.3224812,28.8922895 C32.8778136,29.6058384 33.7649037,30.6034455 35.1848261,32.1264988 C35.466165,32.4282717 38.4203417,35.5679457 39.3400824,36.5617974 C39.891448,37.1575911 40.3995775,37.7130913 40.8808223,38.2471059 C44.5376768,42.3049443 46.7224641,45.1969822 47.5552655,47.4972525 C49.8330124,53.7885887 44.940312,59.6893431 37.9870132,59.6893431 C34.9284884,59.6893431 32.451891,57.966109 30.6159159,56.1580837 C28.7165549,57.9636932 25.9615957,59.4810059 22.9869338,59.4810059 C18.6237125,59.4810059 15.4552266,58.309741 13.9516609,54.470769 C12.8078961,52.1234091 12.2264582,49.7393611 12.2264582,47.3393103 L16.9973208,45.6514554 C16.9973208,47.3256261 17.4456936,50.708017 18.3041089,52.4445055 L18.3961429,52.6556153 C19.1535127,54.6488894 21.042233,56.4632958 23.5066427,56.4632958 C26.0530719,56.4632958 27.186723,54.5520778 28.2966486,52.4056723 L30.3549329,52.4056723 L32.6197755,52.5291618 C33.5392637,54.5874505 35.9790224,56.0032334 38.6331672,56.0032334 C42.3793244,56.0032334 44.0777666,52.0011699 42.9781398,48.9639046 C42.4365295,47.4679296 40.5335352,45.031802 37.3151084,41.4604663 C36.8489896,40.9432363 36.3549185,40.403105 35.8171612,39.8220162 C34.9138588,38.8459273 31.9681125,35.715213 31.6739286,35.3996622 C30.1593941,33.7751251 29.2045469,32.7013193 28.5344911,31.8403619 C28.2274997,31.4459074 27.8885807,31.0406444 27.5055566,30.6082418 C26.6893376,29.686798 23.1542509,26.0664647 22.4345665,25.293143 C20.0308354,22.7102646 17.9850469,20.1818504 15.9351039,17.1251571 C13.1255437,12.9357898 13.4058362,8.59060483 15.4764966,5.13147039 C17.2250495,2.21043158 19.9767024,0.331470387 22.9869338,0.331470387 C25.6734818,0.331470387 28.2846674,1.34298584 30.8083159,3.28993167 C32.7915466,1.33221737 35.4452545,0.331470387 38.6331672,0.331470387 Z" id="path-2"></path>
    </defs>
    <g id="Page-1" stroke="none" stroke-width="1" fill="none" fill-rule="evenodd">
        <g id="登录" transform="translate(-698.000000, -168.000000)">
            <g id="logo_login" transform="translate(698.000000, 168.000000)">
                <g id="Group" transform="translate(12.000000, 1.200000)">
                    <path d="M46.0521139,32.0857749 C47.1949087,30.9485901 47.6958106,29.5595591 47.5548195,27.9186819 C47.0931466,26.38753 46.0958653,25.6219541 44.5629753,25.6219541 C43.0300854,25.6219541 41.9078822,26.2252948 41.1963657,27.4319761 C39.9734224,26.2252948 38.7546413,25.6219541 37.5400225,25.6219541 C35.7180944,25.6219541 32.9349743,28.1253156 35.2694366,31.4826736 C37.1367463,34.168186 39.4407275,34.5125925 41.0245401,35.5780459 C41.0158252,35.5745105 44.3379217,33.7915521 46.0521139,32.0857749 Z" id="Path-3-Copy-4" fill="#04A338" transform="translate(40.978046, 30.600000) scale(-1, 1) rotate(-90.000000) translate(-40.978046, -30.600000) "></path>
                    <path d="M35.674068,19.6638208 C36.8168628,18.526636 37.3177647,17.137605 37.1767736,15.4967277 C36.7151008,13.9655759 35.7178194,13.2 34.1849295,13.2 C32.6520395,13.2 31.5298363,13.8033407 30.8183199,15.010022 C29.5953765,13.8033407 28.3765954,13.2 27.1619766,13.2 C25.3400485,13.2 22.5569284,15.7033615 24.8913907,19.0607195 C26.7587005,21.7462318 29.0626816,22.0906384 30.6464942,23.1560917 C30.6377793,23.1525564 33.9598758,21.369598 35.674068,19.6638208 Z" id="Path-3-Copy" fill="#04A338"></path>
                    <path d="M24.4521139,30.8857749 C25.5949087,29.7485901 26.0958106,28.3595591 25.9548195,26.7186819 C25.4931466,25.18753 24.4958653,24.4219541 22.9629753,24.4219541 C21.4300854,24.4219541 20.3078822,25.0252948 19.5963657,26.2319761 C18.3734224,25.0252948 17.1546413,24.4219541 15.9400225,24.4219541 C14.1180944,24.4219541 11.3349743,26.9253156 13.6694366,30.2826736 C15.5367463,32.968186 17.8407275,33.3125925 19.4245401,34.3780459 C19.4158252,34.3745105 22.7379217,32.5915521 24.4521139,30.8857749 Z" id="Path-3-Copy-3" fill="#04A338" transform="translate(19.378046, 29.400000) rotate(-90.000000) translate(-19.378046, -29.400000) "></path>
                    <path d="M34.474068,42.4638208 C35.6168628,41.326636 36.1177647,39.937605 35.9767736,38.2967277 C35.5151008,36.7655759 34.5178194,36 32.9849295,36 C31.4520395,36 30.3298363,36.6033407 29.6183199,37.810022 C28.3953765,36.6033407 27.1765954,36 25.9619766,36 C24.1400485,36 21.3569284,38.5033615 23.6913907,41.8607195 C25.5587005,44.5462318 27.8626816,44.8906384 29.4464942,45.9560917 C29.4377793,45.9525564 32.7598758,44.169598 34.474068,42.4638208 Z" id="Path-3-Copy-2" fill="#04A338" transform="translate(29.400000, 40.978046) scale(1, -1) translate(-29.400000, -40.978046) "></path>
                    <g id="Path-3" fill-rule="nonzero">
                        <use fill="#04A338" fill-rule="evenodd" xlink:href="#path-1"></use>
                        <path stroke="#FFFFFF" stroke-width="1.2" d="M29.9344646,56.6650108 C27.7164689,58.408703 25.4239757,59.3385214 22.7604757,59.3385214 C16.7202329,59.3385214 14.5781224,58.6333789 13.185825,55.0732264 C12.6235703,53.9193055 12.3111312,52.9715253 12.1559491,51.9825823 C12.0313452,51.1885087 12.0096895,50.5920253 12.0101654,48.9700846 C12.0101901,48.8855238 12.0101901,48.8855238 12.0101983,48.7998037 L12.0101983,48.4389039 L17.5486242,45.5007365 L17.5486242,46.4982434 C17.5486242,48.4340386 17.9007744,50.4012876 18.627657,51.8732579 L18.7305619,52.1110326 C19.4012348,53.8761348 20.5533257,54.6043677 22.7604757,54.6043677 C25.1754863,54.6043677 26.6892257,53.8765352 27.6498758,52.3217305 L27.7721582,52.1795664 L30.3903316,49.9584646 L32.7464625,52.3471391 L32.8486162,52.485954 C33.6156432,53.9229762 35.0478001,54.6043677 37.538314,54.6043677 C40.841126,54.6043677 43.2162849,51.6693384 42.2513328,49.0040564 C41.7537272,47.6296263 39.8590923,45.0994823 36.642936,41.5306659 C36.1853092,41.0228591 35.6944879,40.4860697 35.1503379,39.8980731 C34.803598,39.5233937 34.1409653,38.8149312 33.2090612,37.8215474 C33.2048349,37.8170423 33.2048349,37.8170423 33.2006087,37.8125373 C32.712801,37.2925547 31.0952485,35.5702703 31.0086082,35.4773372 C29.4259072,33.7796825 28.4964943,32.7279558 27.8345341,31.8774006 C27.5382217,31.4966675 27.2081144,31.101514 26.8299657,30.6746153 C26.4932134,30.2944498 25.6917666,29.4510595 24.3613944,28.0693564 C24.3464525,28.0538383 24.3464525,28.0538383 24.3315098,28.0383204 C22.6905809,26.3376084 22.0473397,25.669638 21.7688857,25.370431 C19.2526827,22.6666984 17.210808,20.11081 15.2103315,17.1278766 C12.3289415,12.8314031 12.0007547,8.29650426 14.2380318,4.55902885 C15.9760758,1.65554553 19.2439597,0.0618149465 22.7604757,0.0618149465 C25.264004,0.0618149465 27.5751105,1.04439662 30.3124522,3.08524818 C32.4446079,1.17092569 35.3402377,0.0618149465 38.406709,0.0618149465 C43.3794779,0.0618149465 46.5905993,2.16075685 47.9632657,6.73452039 C48.4726785,10.1131301 48.1414089,11.1194119 45.7178528,14.4716968 L45.6026148,14.6310951 L36.9205506,17.4243525 L38.6904053,15.663186 C40.645154,13.7180332 42.5027437,9.79173732 42.1786145,8.31333192 C41.5266333,6.21130344 40.465324,5.4 38.406709,5.4 C36.0398464,5.4 34.5268913,6.19869392 33.4905434,7.95626623 L33.4112118,8.09080696 L31.4392372,9.24278108 L29.1681393,7.84337004 L29.0614784,7.75965128 C27.2340122,5.95648567 25.4105036,5.4 22.7604757,5.4 C21.6582707,5.4 20.1563098,6.35414183 19.3861516,7.64072688 C18.3729141,9.33338707 18.5858529,11.3888352 20.1934745,13.785978 C22.0124156,16.4982219 23.8592462,18.8094253 26.1611125,21.282847 C26.3093872,21.4421725 26.6134518,21.7596148 27.1661739,22.333116 C27.3338937,22.5071411 27.5325132,22.7130649 27.9369234,23.1323218 C28.2753049,23.4831846 28.5321098,23.7496903 28.7839695,24.0114799 C28.8039821,24.0322821 28.8039821,24.0322821 28.8239939,24.0530861 C30.1164513,25.3967518 30.9386435,26.2641964 31.3212938,26.6961769 C31.782804,27.2171839 32.1930976,27.708641 32.5695218,28.19231 C33.099295,28.8730178 33.9565838,29.8406006 35.3972301,31.385883 C35.4745006,31.4687656 37.0764987,33.1744457 37.598696,33.7311137 C37.6030792,33.7357862 37.6030792,33.7357862 37.6074623,33.7404587 C38.5360081,34.7303121 39.2004099,35.4407294 39.5539894,35.8227997 C40.1158967,36.4299846 40.6242108,36.9859178 41.1000784,37.5139655 C45.0031408,41.8450092 47.0623614,44.6673125 47.8929712,46.9615294 C50.2607605,53.5015706 45.0986889,59.3385214 37.538314,59.3385214 C34.7386392,59.3385214 32.0285613,58.325249 29.9344646,56.6650108 Z"></path>
                    </g>
                    <path d="M38.6810322,8.52651283e-14 C41.3293132,8.52651283e-14 43.0586776,0.906807526 44.9469746,2.95846128 L43.0586776,7.74285253 C42.3716803,5.68710205 41.0834918,4.8 38.6810322,4.8 C36.0931831,4.8 34.389228,5.71611342 33.2480253,7.65151212 L31.6852017,10.3019498 L29.4950003,8.14087247 C27.1853302,5.8619151 25.0402038,4.8 23.0347988,4.8 C21.8321245,4.8 18.5371486,6.14216803 17.8818402,9.19877774 L17.2302721,2.32626835 C18.8116899,0.799085598 21.2425399,8.52651283e-14 23.0347988,8.52651283e-14 C25.7213468,8.52651283e-14 28.3325324,1.01151545 30.8561809,2.95846128 C32.8394116,1.00074698 35.4992291,8.53946933e-14 38.6810322,8.52651283e-14 Z" id="Path-3-Copy-5" fill="#ACCE22" fill-rule="nonzero"></path>
                    <path d="M38.25076,49.2 C40.899041,49.2 42.6284054,50.1068075 44.5167024,52.1584613 L42.6284054,56.9428525 C41.9414081,54.8871021 40.6532197,54 38.25076,54 C35.662911,54 33.9589559,54.9161134 32.8177531,56.8515121 L31.2549296,59.5019498 L29.0647282,57.3408725 C26.7550581,55.0619151 24.6099317,54 22.6045267,54 C21.4018524,54 18.1068764,55.342168 17.4515681,58.3987777 L16.8,51.5262683 C18.3814177,49.9990856 20.8122678,49.2 22.6045267,49.2 C25.2910747,49.2 27.9022602,50.2115155 30.4259088,52.1584613 C32.4091395,50.200747 35.0689569,49.2 38.25076,49.2 Z" id="Path-3-Copy-5" fill="#ACCE22" fill-rule="nonzero" transform="translate(30.658351, 54.350975) scale(1, -1) translate(-30.658351, -54.350975) "></path>
                    <g id="Path-3" fill-rule="nonzero" transform="translate(30.173410, 30.010407) rotate(-270.000000) translate(-30.173410, -30.010407) ">
                        <use fill="#04A338" fill-rule="evenodd" xlink:href="#path-2"></use>
                        <path stroke="#FFFFFF" stroke-width="1.2" d="M29.8829173,6.22248305 C27.9616658,4.3630574 25.2562339,3.78238419 23.1735879,4.46410113 C22.1738993,4.79133129 20.5368794,6.42816186 19.6126097,7.97219727 C18.5993723,9.66485745 18.8123111,11.7203056 20.4199326,14.1174484 C22.2388738,16.8296923 24.0857044,19.1408957 26.3875707,21.6143174 C26.5358454,21.7736428 26.83991,22.0910851 27.392632,22.6645864 C27.5603519,22.8386115 27.7589713,23.0445353 28.1633815,23.4637922 C28.501763,23.814655 28.7585679,24.0811606 29.0104277,24.3429503 C29.0304403,24.3637525 29.0304403,24.3637525 29.050452,24.3845565 C30.3429095,25.7282222 31.1651017,26.5956668 31.5477519,27.0276473 C32.0092622,27.5486543 32.4195557,28.0401114 32.7959799,28.5237804 C33.3257532,29.2044882 34.1830419,30.1720709 35.6236883,31.7173534 C35.7009587,31.800236 37.3029568,33.5059161 37.8251542,34.0625841 C37.8295373,34.0672566 37.8295373,34.0672566 37.8339205,34.0719291 C38.7624662,35.0617825 39.426868,35.7721998 39.7804475,36.1542701 C40.3423549,36.7614549 40.850669,37.3173882 41.3265365,37.8454359 C45.229599,42.1764795 47.2888195,44.9987829 48.1194293,47.2929998 C50.5182167,53.9186604 45.4263618,60.2893431 37.9870132,60.2893431 C35.285391,60.2893431 32.8704145,59.083362 30.6061318,56.9791424 C28.4262454,58.888498 25.7003466,60.0810059 22.9869338,60.0810059 C17.9722803,60.0810059 14.8938707,58.5217163 13.4122832,54.7335839 C12.2260695,52.2991058 11.6264582,49.8255493 11.6264582,47.3393103 L11.6264582,46.9151384 L17.5973208,44.8027427 L17.5973208,45.6514554 C17.5973208,47.6329049 18.1345768,50.7476146 18.8541151,52.2047283 L18.95702,52.4425029 C19.7126217,54.4311239 21.4956049,55.8632958 23.5066427,55.8632958 C25.3735386,55.8632958 26.3332869,54.8962267 27.7636893,52.1300742 L27.9314404,51.8056723 L28.2966486,51.8056723 L30.3875991,51.8065622 L33.0181944,51.9499942 L33.1675978,52.2844361 C33.9866387,54.1178718 36.2086587,55.4032334 38.6331672,55.4032334 C41.6798371,55.4032334 43.4803716,52.1136351 42.413976,49.1681573 C41.9312135,47.8347251 40.1879436,45.5445734 36.8693942,41.8621363 C36.4117674,41.3543295 35.920946,40.8175401 35.376796,40.2295435 C35.0300562,39.854864 34.3674235,39.1464016 33.4355193,38.1530178 C33.4312931,38.1485127 33.4312931,38.1485127 33.4270668,38.1440077 C32.9392592,37.6240251 31.3217067,35.9017407 31.2350664,35.8088076 C29.6523654,34.1111529 28.7229525,33.0594262 28.0609923,32.2088709 C27.7646799,31.8281379 27.4345726,31.4329844 27.0564238,31.0060857 C26.7196716,30.6259202 25.9182247,29.7825299 24.5878526,28.4008268 C24.5729107,28.3853087 24.5729107,28.3853087 24.557968,28.3697908 C22.9170391,26.6690787 22.2737979,26.0011084 21.9953438,25.7019014 C19.4791408,22.9981688 17.4372662,20.4422804 15.4367896,17.459347 C12.6624754,13.3225354 12.6125472,8.74764383 14.9616846,4.82330058 C16.8554953,1.65960192 19.8180307,-0.268529613 22.9869338,-0.268529613 C25.6462718,-0.268529613 28.2462323,0.668715081 30.7650816,2.5072998 C32.8177933,0.670158966 35.487502,-0.268529613 38.6331672,-0.268529613 C43.6443306,-0.268529613 46.4212337,1.50404665 47.788215,6.06424608 C48.2128706,9.24320997 48.202799,9.72042447 47.720659,11.5915988 L47.6510562,11.8617257 L37.939962,16.5316139 L40.4576034,14.0263316 C42.3120621,12.1809764 43.3451245,9.7185872 43.002021,8.15420602 C42.2819096,5.83252119 40.8189161,4.44150804 38.9422973,4.44150804 C36.406095,4.44150804 34.4239054,5.33324511 33.4551372,6.97620696 L33.3702555,7.08787925 L31.5692376,8.95607706 L29.8829173,6.22248305 Z"></path>
                    </g>
                    <path d="M62.7710616,25.5566496 C65.4193426,25.5566496 67.4717558,26.9034731 69.3600528,28.9551268 L67.1906529,34.0898721 C66.5036556,32.0341216 65.2651234,30.7617133 63.2226846,30.3866772 C61.1802457,30.0116411 58.9308804,31.3027906 57.7896777,33.2381893 L56.2268541,35.888627 L54.0366527,33.7275497 C51.7269826,31.4485923 49.5818562,30.3866772 47.5764512,30.3866772 C46.3737769,30.3866772 43.078801,31.7288452 42.4234926,34.7854549 L41.7719245,27.9129456 C43.3533423,26.3857628 45.7841923,25.5866772 47.5764512,25.5866772 C50.2629992,25.5866772 52.8741848,26.5981927 55.3978333,28.5451385 C57.381064,26.5874242 59.5892585,25.5566496 62.7710616,25.5566496 Z" id="Path-3-Copy-5" fill="#ACCE22" fill-rule="nonzero" transform="translate(55.565989, 30.722638) scale(1, -1) rotate(-270.000000) translate(-55.565989, -30.722638) "></path>
                    <path d="M12.7433837,25.5073763 C15.3916647,25.5073763 17.1210291,26.4141839 19.0093261,28.4658376 L17.1210291,33.2502289 C16.4340318,31.1944784 15.1458433,30.3073763 12.7433837,30.3073763 C10.1555346,30.3073763 8.45157954,31.2234898 7.31037681,33.1588885 L5.74755325,35.8093261 L3.55735186,33.6482488 C1.24768176,31.3692914 -0.897444663,30.3073763 -2.90284965,30.3073763 C-4.10552397,30.3073763 -7.4004999,31.6495444 -8.05580829,34.7061541 L-8.70737634,27.8336447 C-7.12595859,26.3064619 -4.69510856,25.5073763 -2.90284965,25.5073763 C-0.216301648,25.5073763 2.39488389,26.5188918 4.91853242,28.4658376 C6.90176317,26.5081233 9.56158058,25.5073763 12.7433837,25.5073763 Z" id="Path-3-Copy-6" fill="#ACCE22" fill-rule="nonzero" transform="translate(5.150975, 30.658351) scale(-1, -1) rotate(-270.000000) translate(-5.150975, -30.658351) "></path>
                </g>
                <text id="渡仁心理" font-family="MicrosoftYaHei, Microsoft YaHei" font-size="40.8" font-weight="normal" letter-spacing="1.8" fill="#141414">
                    <tspan x="98.4" y="43">测试系</tspan>
                    <tspan x="226.2" y="43">统</tspan>
                </text>
                <text id="专业/诚信/开放" font-family="MicrosoftYaHei, Microsoft YaHei" font-size="21.6" font-weight="normal" letter-spacing="2.51999989" fill="#00A238">
                    <tspan x="99.6" y="80.6">专业/诚信/开</tspan>
                    <tspan x="243.69703" y="80.6">放</tspan>
                </text>
                <text id="Doreen" font-family="MinionPro-Regular, Minion Pro" font-size="28.8" font-weight="normal" fill="#00A238">
                    <tspan x="0" y="82.2">Doreen</tspan>
                </text>
            </g>
        </g>
    </g>
</svg>