<?xml version="1.0" encoding="UTF-8"?>
<svg width="521px" height="183px" viewBox="0 0 521 183" version="1.1" xmlns="http://www.w3.org/2000/svg" xmlns:xlink="http://www.w3.org/1999/xlink">
    <!-- Generator: Sketch 49.3 (51167) - http://www.bohemiancoding.com/sketch -->
    <title>recovery</title>
    <desc>Created with Sketch.</desc>
    <defs>
        <path d="M0,0 L520,0 L520,183 L0,183 L0,0 Z" id="path-1"></path>
        <mask id="mask-2" maskContentUnits="userSpaceOnUse" maskUnits="objectBoundingBox" x="0" y="0" width="520" height="183" fill="white">
            <use xlink:href="#path-1"></use>
        </mask>
    </defs>
    <g id="Page-1" stroke="none" stroke-width="1" fill="none" fill-rule="evenodd">
        <g id="中途退出后进入" transform="translate(-571.000000, -401.000000)" stroke-width="2">
            <g id="recovery" transform="translate(572.000000, 401.000000)">
                <use id="Rectangle-3" stroke="#D5D5D5" mask="url(#mask-2)" stroke-dasharray="3,2" xlink:href="#path-1"></use>
                <polyline id="Rectangle-9" stroke="#00A238" points="0 35 0 1 34 1"></polyline>
                <polyline id="Rectangle-9-Copy" stroke="#00A238" transform="translate(17.000000, 165.000000) scale(1, -1) translate(-17.000000, -165.000000) " points="0 182 0 148 34 148"></polyline>
                <polyline id="Rectangle-9" stroke="#00A238" transform="translate(502.000000, 18.000000) scale(-1, 1) translate(-502.000000, -18.000000) " points="485 35 485 1 519 1"></polyline>
                <polyline id="Rectangle-9-Copy-2" stroke="#00A238" transform="translate(502.000000, 165.000000) scale(-1, -1) translate(-502.000000, -165.000000) " points="485 182 485 148 519 148"></polyline>
            </g>
        </g>
    </g>
</svg>