<?xml version="1.0" encoding="UTF-8"?>
<svg width="33px" height="33px" viewBox="0 0 33 33" version="1.1" xmlns="http://www.w3.org/2000/svg" xmlns:xlink="http://www.w3.org/1999/xlink">
    <!-- Generator: Sketch 49.3 (51167) - http://www.bohemiancoding.com/sketch -->
    <title>tips</title>
    <desc>Created with Sketch.</desc>
    <defs>
        <polygon id="path-1" points="0 0 33 0 33 33 0 33"></polygon>
    </defs>
    <g id="Page-1" stroke="none" stroke-width="1" fill="none" fill-rule="evenodd">
        <g id="开始测试-首次时" transform="translate(-245.000000, -334.000000)">
            <g id="tips" transform="translate(245.000000, 334.000000)">
                <mask id="mask-2" fill="white">
                    <use xlink:href="#path-1"></use>
                </mask>
                <g id="Clip-2"></g>
                <path d="M6.0499295,5.0443897 C5.6203468,4.61464797 4.92372512,4.61464797 4.49458554,5.0443897 C4.06468057,5.47380917 4.06468057,6.17026632 4.49458554,6.60000806 L6.0499295,8.15546528 C6.4795122,8.58504588 7.17565049,8.58504588 7.60555545,8.15546528 C8.03497702,7.72604581 8.03497702,7.02974979 7.60555545,6.60000806 L6.0499295,5.0443897 Z M26.9499496,5.0443897 L25.3943237,6.60000806 C24.9648618,7.02974979 24.9648618,7.72604581 25.3943237,8.15546528 C25.823423,8.58504588 26.5200447,8.58504588 26.9499496,8.15546528 L28.5050922,6.60000806 C28.9349972,6.17026632 28.9349972,5.47397031 28.5050922,5.0443897 C28.0756706,4.6148091 27.3795323,4.6148091 26.9499496,5.0443897 Z M3.30010071,13.7499631 L1.10010071,13.7499631 C0.492666581,13.7499631 0,14.2423453 0,14.8497361 C0,15.4572882 0.492545731,15.9497912 1.10010071,15.9497912 L3.30010071,15.9497912 C3.90749455,15.9497912 4.40004028,15.4572882 4.40004028,14.8497361 C4.40004028,14.2423453 3.90749455,13.7499631 3.30010071,13.7499631 Z M31.8997784,13.7499631 L29.6997784,13.7499631 C29.0923443,13.7499631 28.5996777,14.2423453 28.5996777,14.8497361 C28.5996777,15.4572882 29.0923443,15.9497912 29.6997784,15.9497912 L31.8997784,15.9497912 C32.5071723,15.9497912 33,15.4572882 33,14.8497361 C33,14.2423453 32.5071723,13.7499631 31.8997784,13.7499631 Z M15.3999194,1.0999342 L15.3999194,3.29992346 C15.3999194,3.90747547 15.8924652,4.39985767 16.499859,4.39985767 C17.1070917,4.39985767 17.5999194,3.90747547 17.5999194,3.29992346 L17.5999194,1.0999342 C17.5999194,0.492543326 17.1070917,0 16.499859,0 C15.8924652,0 15.3999194,0.492543326 15.3999194,1.0999342 Z M8.80004028,16.4997784 C8.80004028,12.2471963 12.247095,8.79999731 16.499859,8.79999731 C20.7525827,8.79999731 24.1999597,12.2471963 24.1999597,16.4997784 C24.1999597,20.7524814 20.7525827,24.1998416 16.499859,24.1998416 C12.247095,24.1998416 8.80004028,20.7523203 8.80004028,16.4997784 Z M6.60004028,16.4997784 C6.60004028,21.9679077 11.0321462,26.4001531 16.499859,26.4001531 C21.9675315,26.4001531 26.3998389,21.9679077 26.3998389,16.4997784 C26.3998389,11.0320923 21.9675315,6.60000806 16.499859,6.60000806 C11.0321462,6.60000806 6.60004028,11.0320923 6.60004028,16.4997784 Z M14.2998187,31.8999449 C14.2998187,32.5070136 14.7923645,33 15.3999194,33 L17.5999194,33 C18.2074744,33 18.7000201,32.5070136 18.7000201,31.8999449 C18.7000201,31.2920707 18.2074744,30.8000107 17.5999194,30.8000107 L15.3999194,30.8000107 C14.7923645,30.8000107 14.2998187,31.2920707 14.2998187,31.8999449 Z M12.0999799,28.6000215 C12.0999799,29.2070901 12.5925256,29.6999154 13.1997583,29.6999154 L19.7997986,29.6999154 C20.4073536,29.6999154 20.899859,29.2070901 20.899859,28.6000215 C20.899859,27.9919861 20.4073536,27.499765 19.7997986,27.499765 L13.1997583,27.499765 C12.5923645,27.499765 12.0999799,27.9919861 12.0999799,28.6000215 Z" id="Fill-1" fill="#000000" mask="url(#mask-2)"></path>
            </g>
        </g>
    </g>
</svg>